<svg xmlns="http://www.w3.org/2000/svg" viewBox="0 0 237.55 276.42"><defs><style>.cls-1,.cls-2,.cls-5,.cls-6{stroke:#ff710d;stroke-miterlimit:10;}.cls-2,.cls-4{fill:#ff710d;}.cls-3{opacity:0.7;}.cls-5{fill:none;}.cls-6{opacity:0.75;}</style></defs><title>epic_pocha-illustration</title><g id="Layer_2" data-name="Layer 2"><g id="Layer_6" data-name="Layer 6"><g id="Layer_8_copy" data-name="Layer 8 copy"><g id="soju"><path class="cls-1" d="M39.6,21.05,46.27,61s-.22,3.15-3.3,11.18-4.3,7.32-3.75,13.38,18.39,74.78,18.39,74.78,3.18,11.4,5,17.21c1.47,4.72,4.58,5.06,11.7,3.25,4.84-1.24,11.61-3,11.61-3l7.8-2s6.78-1.74,11.62-3c7.1-1.88,9.64-3.69,8.63-8.53-1.25-6-4-17.47-4-17.47S92.08,78,89.6,72.46s-3.19-4.34-9.79-9.86-8.32-8.17-8.32-8.17L57.92,16.11A33.62,33.62,0,0,0,39.6,21.05Z"/><path class="cls-1" d="M41,22l7,40.12L44.36,72.94c-2.59,7.82-3.87,7.27-3.25,13.24s18.11,74.15,18.11,74.15,3,10.91,4.75,16.67c1.44,4.67,5.08,3.25,11.44,1.63,4.34-1.1,10.39-2.7,10.39-2.7l7-1.81s6.07-1.55,10.39-2.7c6.35-1.68,10.3-2.84,9.28-7.62-1.26-5.89-4.06-16.57-4.06-16.57S91,79.81,88.65,74.29,85.13,70,79.06,64.38s-8.57-8.09-8.57-8.09L57.22,17.63S49.1,19.35,41,22Z"/><polyline class="cls-1" points="41.96 97.63 93.03 84.36 109.28 146.93 57.81 160.3 41.96 97.63"/><path class="cls-1" d="M34.69,9.54a15.49,15.49,0,0,1-.39-2.27c-.12-1,1-2,3.45-2.69C42.63,3.24,52.34.73,52.34.73s3.1-1,3.78,1.14.39,2.27.39,2.27-.54.14-.3,1.18.94.48,1.18,1.46-.58.75-.22,2S57.89,9,58.42,11s1.43,4.58-.5,5.08S39.6,21.05,39.6,21.05s-1.69.14-2.48-2.42c-.23-.75-.82-2.57-1-3.56-.3-1.31-.21-1.76,0-2.08.23-.76.42-.59.15-1.74S35.2,10.44,34.69,9.54Z"/><path class="cls-2" d="M78.61,132.18a13,13,0,0,1-9.27,15.9c-6.93,1.8-11.86-3-13.67-9.94s.17-13.54,7.11-15.34A13,13,0,0,1,78.61,132.18Z"/><g class="cls-3"><path class="cls-4" d="M51,82.81a17.33,17.33,0,0,0,4.62-1.17A47.8,47.8,0,0,1,60.15,80,20.11,20.11,0,0,1,65,79.35c1.62,0,3.23.12,4.83.25a67.49,67.49,0,0,0,9.52.57c1.59,0,3.19-.13,4.78-.27s3.17-.36,4.75-.58H89l0,.07a1.54,1.54,0,0,1-.21,1.87,3.13,3.13,0,0,1-1.71.83l-3.59.66a51.84,51.84,0,0,1-7.28.85c-2.46.06-4.9-.21-7.3-.36a24.56,24.56,0,0,0-7.11.5c-2.34.47-4.66,1.19-7,1.76a31.38,31.38,0,0,1-7.3,1,8.27,8.27,0,0,1-3.7-.75,2.63,2.63,0,0,1-1.25-1.54,1,1,0,0,1,.3-1,2.08,2.08,0,0,1,.89-.42C46.16,82.26,48.59,82.7,51,82.81Zm0,.1c-1.22,0-2.42-.15-3.64-.17a11.81,11.81,0,0,0-3.57.32c-.56.16-1,.52-.85,1a1.71,1.71,0,0,0,.43.67,2.21,2.21,0,0,0,.65.47,7.77,7.77,0,0,0,3.42.45,37.23,37.23,0,0,0,7.07-1.15c2.34-.57,4.66-1.31,7.08-1.81A25.42,25.42,0,0,1,69,82.3c2.45.17,4.84.53,7.24.54a48.61,48.61,0,0,0,7.21-.54c1.2-.16,2.41-.35,3.59-.56a2.81,2.81,0,0,0,1.54-.7,1.21,1.21,0,0,0,.2-1.48l.15.06c-1.58.25-3.17.49-4.76.68s-3.19.39-4.79.49a45.94,45.94,0,0,1-4.84.09c-1.61-.07-3.21-.23-4.8-.38s-3.17-.35-4.75-.38a20,20,0,0,0-4.7.33,40.06,40.06,0,0,0-4.58,1.38A17,17,0,0,1,51,82.91Z"/></g><line x1="53.42" y1="4.64" x2="43.33" y2="7.2"/><path class="cls-4" d="M53.42,4.64A25,25,0,0,1,48.5,6.41a24.11,24.11,0,0,1-5.17.79,23.89,23.89,0,0,1,4.92-1.76A24.76,24.76,0,0,1,53.42,4.64Z"/><line x1="54.67" y1="8.75" x2="41.15" y2="12.39"/><path class="cls-4" d="M54.67,8.75A43,43,0,0,1,48,11.05a44.16,44.16,0,0,1-6.89,1.34,43,43,0,0,1,6.63-2.3A44.16,44.16,0,0,1,54.67,8.75Z"/><line x1="55.8" y1="13.57" x2="47.94" y2="15.61"/><path class="cls-4" d="M55.8,13.57a15.19,15.19,0,0,1-3.8,1.5,14.84,14.84,0,0,1-4.06.54,16.51,16.51,0,0,1,7.86-2Z"/></g><g id="noodle"><ellipse class="cls-1" cx="118.61" cy="159.48" rx="118.11" ry="5.47"/><polygon class="cls-1" points="229.66 21.23 82.92 226.86 83.88 227.57 232.17 23.07 229.66 21.23"/><path class="cls-1" d="M185.16,126C174.37,117,147,94,135,113c-5.69,8.93,1.25,16.5,8.22,21.54,3.55,2.57,9.87,8.36,9.87,8.36-.42.61-1.48-.71-2.69-1.21-2.69-1.11-5-3.24-7.57-4.59-8.65-4.5-20.11-3.83-24.68,6-2.43,5.21-1,10.64,2.72,14.79,1.9,2.13,4.59,3.27,6.87,4.9,1.64,1.18,3.19,2.67,5.18,3a3.93,3.93,0,0,1,1.87.55,7.66,7.66,0,0,1-4.55-1.42c-1-.59-1.89-1.24-2.9-1.75a34.11,34.11,0,0,0-3.24-1.07c-1.45-.56-2.58-1.69-3.93-2.46a13.71,13.71,0,0,0-8.16-1.25,15.65,15.65,0,0,0-7.45,2.73,14,14,0,0,0-1.4,1.15c-6.84,6.37-5,14.76.8,20.69,4.89,5,11.14,10.7,17.78,13.13,9,3.29,12.83-11,3.93-14.28,1.81.66-1.49-1.12-1.85-1.37-1.4-1-2.73-2-4-3.14-2.18-1.81-5.51-4-7-6.52,1.64,2.86,2.17,2.32,5.3,3.26,2.29.69,4.45,1.73,6.8,2.21a23.41,23.41,0,0,0,9.93-.11c7-1.64,15.17-8.49,12.68-16.5-1.17-3.78-4.39-5.92-7.88-7.29-2.32-.9-6.67-1.12-8.5-2.73,1.23,1.08-1.05-1,1.76-.6,3,.44,5.6,2.9,8.11,4.36,4.42,2.58,9.25,4.66,14.47,4,10-1.34,15.58-11.16,11.18-20.33-2-4.26-5.33-7.46-9-10.3-2-1.54-1.27-1.14-3.31-2.63a34.29,34.29,0,0,1-3.57-2.47c-.76-.84-.33-1.48.47-.63,1.23,1,1.86.94,3.15,1.43a41.92,41.92,0,0,1,6.62,3.26c5.06,3,9.38,6.92,13.73,10.84C178.22,139.63,188.38,128.64,185.16,126Z"/><polygon class="cls-1" points="223.95 16.84 83.4 226.74 84.39 227.41 226.54 18.57 223.95 16.84"/><ellipse class="cls-2" cx="118.61" cy="165.48" rx="116.01" ry="5.47"/><g id="food"><path class="cls-1" d="M92.77,175.35c-.08-.68-1.08-1.5-2-2.23a8,8,0,0,1-2.56-2.86,8.82,8.82,0,0,1-.32-4c.08-1,.18-2.23-.16-2.61S86.1,163.05,85,163a8.89,8.89,0,0,1-3.88-.91,8.47,8.47,0,0,1-2.64-3c-.58-.92-1.23-2-1.8-2.11s-1.71.45-2.63.93a8.81,8.81,0,0,1-3.92,1.33,8.57,8.57,0,0,1-3.92-1.28c-1-.5-2.08-1.07-2.65-.91s-1.21,1.19-1.78,2.11a8.6,8.6,0,0,1-2.64,3.06,9,9,0,0,1-3.9.9c-1.12.09-2.39.19-2.79.64s-.27,1.62-.21,2.61a8.74,8.74,0,0,1-.39,4.05,8,8,0,0,1-2.65,2.82c-.89.7-1.91,1.5-2,2.17L44,174.92c.27-1.88,1.81-3.07,3.17-4.13a6.44,6.44,0,0,0,1.71-1.65,6.65,6.65,0,0,0,.15-2.65c-.1-1.63-.22-3.47,1-4.8s3.2-1.55,4.92-1.69a7.06,7.06,0,0,0,2.51-.46,6.68,6.68,0,0,0,1.58-2c.88-1.41,1.87-3,3.65-3.49s3.46.39,5,1.15a7.13,7.13,0,0,0,2.44.93,6.87,6.87,0,0,0,2.44-1c1.48-.78,3.16-1.66,4.93-1.2s2.8,2.07,3.69,3.48a6.75,6.75,0,0,0,1.59,2,7,7,0,0,0,2.5.46c1.73.14,3.69.31,4.93,1.72s1,3.2.9,4.83a6.85,6.85,0,0,0,.1,2.66,6.67,6.67,0,0,0,1.67,1.67c1.33,1.09,2.85,2.33,3.06,4.22Z"/><path class="cls-1" d="M54.71,178.73l-3.13-.43c.27-1.88,1.81-3.07,3.17-4.13a6.44,6.44,0,0,0,1.71-1.65,6.49,6.49,0,0,0,.14-2.65c-.1-1.63-.21-3.47,1-4.8s3.19-1.55,4.92-1.69a7.06,7.06,0,0,0,2.51-.46,6.68,6.68,0,0,0,1.58-2c.88-1.41,1.87-3,3.65-3.49s3.46.39,5,1.15a6.91,6.91,0,0,0,2.44.93h0a6.74,6.74,0,0,0,2.44-1c1.49-.78,3.17-1.66,4.94-1.2s2.8,2.07,3.69,3.48a6.74,6.74,0,0,0,1.58,2,7.16,7.16,0,0,0,2.51.46c1.73.14,3.69.31,4.93,1.72s1,3.2.9,4.83a6.66,6.66,0,0,0,.1,2.66,6.67,6.67,0,0,0,1.67,1.67c1.33,1.09,2.84,2.33,3.06,4.22l-3.14.35c-.07-.68-1.08-1.5-2-2.23a8,8,0,0,1-2.56-2.86,8.82,8.82,0,0,1-.32-4c.08-1,.18-2.23-.16-2.61s-1.67-.56-2.79-.65a8.94,8.94,0,0,1-3.89-.91,8.54,8.54,0,0,1-2.63-3c-.58-.92-1.23-2-1.8-2.11s-1.71.45-2.63.93a8.81,8.81,0,0,1-3.92,1.33,8.9,8.9,0,0,1-3.92-1.28c-1-.5-2.09-1.07-2.65-.91s-1.21,1.19-1.78,2.11a8.6,8.6,0,0,1-2.64,3.06,9,9,0,0,1-3.91.9c-1.12.09-2.39.19-2.79.64s-.26,1.62-.2,2.61a8.62,8.62,0,0,1-.4,4.05,7.89,7.89,0,0,1-2.64,2.82C55.82,177.26,54.81,178.06,54.71,178.73Z"/><path class="cls-1" d="M77.36,182.57l-3.13-.42c.27-1.88,1.8-3.08,3.16-4.13a6.67,6.67,0,0,0,1.72-1.65,6.67,6.67,0,0,0,.14-2.65c-.1-1.63-.21-3.48,1-4.8s3.2-1.56,4.92-1.69a7.06,7.06,0,0,0,2.51-.46,6.47,6.47,0,0,0,1.59-2c.87-1.41,1.86-3,3.64-3.48s3.47.39,5,1.15a6.71,6.71,0,0,0,2.44.93,7.07,7.07,0,0,0,2.44-1c1.49-.78,3.17-1.66,4.94-1.2s2.8,2.06,3.68,3.48a6.85,6.85,0,0,0,1.59,2,7,7,0,0,0,2.5.47c1.74.14,3.7.3,4.94,1.72s1,3.19.9,4.82a6.86,6.86,0,0,0,.09,2.66A6.52,6.52,0,0,0,123,178c1.34,1.1,2.85,2.33,3.07,4.23l-3.14.34c-.08-.68-1.08-1.49-2-2.22a8,8,0,0,1-2.56-2.86,8.72,8.72,0,0,1-.32-4.05c.08-1,.17-2.22-.16-2.61s-1.67-.55-2.79-.64a9.08,9.08,0,0,1-3.89-.91,8.57,8.57,0,0,1-2.63-3c-.58-.92-1.23-2-1.8-2.1s-1.71.45-2.63.93a8.81,8.81,0,0,1-3.92,1.33h0a9,9,0,0,1-3.9-1.28c-1-.5-2.08-1.07-2.65-.91s-1.2,1.19-1.77,2.11a8.56,8.56,0,0,1-2.64,3,8.88,8.88,0,0,1-3.91.91c-1.12.08-2.39.18-2.79.63s-.27,1.62-.21,2.61a8.79,8.79,0,0,1-.39,4.06,8.24,8.24,0,0,1-2.64,2.82C78.47,181.11,77.45,181.9,77.36,182.57Z"/><path class="cls-1" d="M85,177.86l-3.15-.23c.14-1.87,1.58-3.16,2.86-4.3a6.54,6.54,0,0,0,1.61-1.77,6.73,6.73,0,0,0-.07-2.66c-.23-1.61-.49-3.43.57-4.85s3-1.81,4.72-2.11a6.94,6.94,0,0,0,2.46-.69,6.73,6.73,0,0,0,1.36-2.2c.71-1.48,1.51-3.17,3.2-3.83s3.49,0,5.07.58a7.06,7.06,0,0,0,2.53.64,7,7,0,0,0,2.32-1.25c1.38-.94,2.94-2,4.74-1.76s3,1.74,4.11,3.06a6.75,6.75,0,0,0,1.8,1.8,7.19,7.19,0,0,0,2.54.22c1.74,0,3.73-.06,5.1,1.25s1.32,3.11,1.33,4.75a7,7,0,0,0,.32,2.65,7,7,0,0,0,1.77,1.54c1.35,1,3,2.15,3.37,4l-3.11.54c-.12-.68-1.19-1.44-2.13-2.11a8.06,8.06,0,0,1-2.73-2.65,9.14,9.14,0,0,1-.65-4c0-1,0-2.23-.38-2.58s-1.71-.39-2.84-.37a9.26,9.26,0,0,1-3.94-.51,8.62,8.62,0,0,1-2.94-2.7c-.69-.85-1.47-1.82-2.06-1.9s-1.63.65-2.48,1.23a8.8,8.8,0,0,1-3.74,1.78,8.71,8.71,0,0,1-4-.82c-1-.38-2.21-.82-2.76-.6s-1.06,1.31-1.52,2.28a8.37,8.37,0,0,1-2.31,3.34A8.63,8.63,0,0,1,92.1,165c-1.1.19-2.35.41-2.71.89s-.14,1.65,0,2.63a8.71,8.71,0,0,1-.08,4.09,8,8,0,0,1-2.45,3C86,176.34,85.06,177.2,85,177.86Z"/><path class="cls-1" d="M122.75,179.36l-3.15-.23c.14-1.87,1.59-3.17,2.86-4.3a6.39,6.39,0,0,0,1.61-1.78,6.5,6.5,0,0,0-.07-2.65c-.22-1.61-.48-3.43.57-4.85s3-1.82,4.72-2.11a7.09,7.09,0,0,0,2.46-.69,6.56,6.56,0,0,0,1.36-2.2c.71-1.49,1.51-3.17,3.21-3.83s3.49,0,5.07.57a6.81,6.81,0,0,0,2.52.64,6.71,6.71,0,0,0,2.32-1.24c1.38-.94,2.94-2,4.75-1.76s3.05,1.74,4.1,3a6.81,6.81,0,0,0,1.8,1.81,7.28,7.28,0,0,0,2.54.21c1.75,0,3.73-.06,5.11,1.26s1.32,3.1,1.33,4.75a6.76,6.76,0,0,0,.32,2.64,6.53,6.53,0,0,0,1.76,1.55c1.35,1,3,2.14,3.37,4l-3.11.54c-.12-.69-1.18-1.44-2.12-2.11a8,8,0,0,1-2.74-2.66,9,9,0,0,1-.64-4c0-1,0-2.23-.39-2.58s-1.71-.4-2.84-.38a9.13,9.13,0,0,1-3.94-.5,8.81,8.81,0,0,1-2.94-2.7c-.68-.85-1.46-1.82-2.06-1.9s-1.62.65-2.48,1.23a8.75,8.75,0,0,1-3.74,1.78,8.74,8.74,0,0,1-4.05-.82c-1-.38-2.21-.82-2.76-.6s-1.06,1.31-1.52,2.28a8.59,8.59,0,0,1-2.3,3.34,8.8,8.8,0,0,1-3.83,1.28c-1.11.19-2.36.41-2.72.89s-.14,1.64,0,2.63a8.54,8.54,0,0,1-.07,4.08,8,8,0,0,1-2.46,3C123.76,177.84,122.8,178.69,122.75,179.36Z"/><path class="cls-1" d="M152.94,180.86l-3.15-.23c.15-1.88,1.59-3.17,2.87-4.31a6.56,6.56,0,0,0,1.61-1.77,6.73,6.73,0,0,0-.07-2.66c-.23-1.6-.49-3.42.57-4.84s3-1.82,4.72-2.11a6.92,6.92,0,0,0,2.46-.7,6.56,6.56,0,0,0,1.36-2.19c.71-1.49,1.51-3.17,3.2-3.84s3.49,0,5.07.58a6.81,6.81,0,0,0,2.53.64,6.89,6.89,0,0,0,2.32-1.24c1.38-.94,2.94-2,4.74-1.76s3.05,1.74,4.11,3a6.8,6.8,0,0,0,1.79,1.81,7.28,7.28,0,0,0,2.54.21c1.75,0,3.74-.06,5.11,1.25s1.32,3.11,1.33,4.76a7,7,0,0,0,.32,2.64,6.58,6.58,0,0,0,1.77,1.54c1.35,1,3,2.15,3.37,4.05l-3.11.54c-.13-.69-1.19-1.44-2.13-2.11a8.18,8.18,0,0,1-2.73-2.66,8.84,8.84,0,0,1-.65-4c0-1,0-2.24-.38-2.59s-1.72-.39-2.84-.37a9.11,9.11,0,0,1-3.94-.51,8.59,8.59,0,0,1-2.94-2.69c-.69-.85-1.47-1.82-2.06-1.9s-1.63.64-2.48,1.23a6.54,6.54,0,0,1-7.79,1c-1-.39-2.21-.82-2.76-.6s-1.06,1.31-1.52,2.27a8.48,8.48,0,0,1-2.31,3.35A8.88,8.88,0,0,1,160,168c-1.1.19-2.35.41-2.71.89s-.14,1.64,0,2.62a8.71,8.71,0,0,1-.08,4.09,8,8,0,0,1-2.45,3C154,179.34,153,180.19,152.94,180.86Z"/><path class="cls-1" d="M77.67,174.88c-.08-.68-1.08-1.5-2-2.22a8.1,8.1,0,0,1-2.55-2.87,8.69,8.69,0,0,1-.32-4c.07-1,.17-2.23-.17-2.61s-1.66-.56-2.78-.65a8.94,8.94,0,0,1-3.89-.91,8.57,8.57,0,0,1-2.64-3c-.57-.92-1.23-2-1.8-2.11s-1.7.46-2.62.94A8.92,8.92,0,0,1,55,158.71a8.61,8.61,0,0,1-3.93-1.28c-1-.5-2.08-1.06-2.65-.91s-1.21,1.19-1.78,2.11A8.47,8.47,0,0,1,44,161.69a9,9,0,0,1-3.91.9c-1.12.09-2.39.19-2.79.64s-.27,1.62-.21,2.61a8.74,8.74,0,0,1-.39,4,8.07,8.07,0,0,1-2.64,2.82c-.9.7-1.92,1.5-2,2.17l-3.13-.42c.26-1.88,1.8-3.08,3.16-4.14a6.66,6.66,0,0,0,1.72-1.64A6.93,6.93,0,0,0,34,166c-.1-1.63-.21-3.47,1-4.8s3.2-1.55,4.92-1.69a7.09,7.09,0,0,0,2.51-.45,6.72,6.72,0,0,0,1.59-2c.87-1.41,1.86-3,3.64-3.49s3.46.39,5,1.15a7.13,7.13,0,0,0,2.44.93,6.87,6.87,0,0,0,2.44-1c1.48-.77,3.17-1.66,4.94-1.19s2.79,2.06,3.68,3.47a6.91,6.91,0,0,0,1.59,2,7,7,0,0,0,2.5.46c1.73.15,3.7.31,4.93,1.73s1,3.19.91,4.82a6.86,6.86,0,0,0,.09,2.66,6.85,6.85,0,0,0,1.67,1.67c1.34,1.09,2.85,2.33,3.07,4.23Z"/><path class="cls-1" d="M62.26,178.73l-3.13-.43c.27-1.88,1.81-3.07,3.16-4.13A6.51,6.51,0,0,0,64,172.52a6.67,6.67,0,0,0,.14-2.65c-.1-1.63-.21-3.47,1-4.8s3.2-1.55,4.93-1.69a7.11,7.11,0,0,0,2.51-.46,6.68,6.68,0,0,0,1.58-2c.88-1.41,1.87-3,3.64-3.49s3.47.39,5,1.15a6.91,6.91,0,0,0,2.44.93h0a6.8,6.8,0,0,0,2.44-1c1.49-.78,3.17-1.66,4.94-1.2s2.8,2.07,3.69,3.48a6.74,6.74,0,0,0,1.58,2,7.11,7.11,0,0,0,2.51.46c1.73.14,3.69.31,4.93,1.72s1,3.2.9,4.83a6.66,6.66,0,0,0,.1,2.66,6.6,6.6,0,0,0,1.66,1.67c1.34,1.09,2.85,2.33,3.07,4.22l-3.14.35c-.08-.68-1.08-1.5-2-2.23a8,8,0,0,1-2.56-2.86,8.82,8.82,0,0,1-.32-4c.08-1,.17-2.23-.16-2.61s-1.67-.56-2.79-.65a8.94,8.94,0,0,1-3.89-.91,8.57,8.57,0,0,1-2.63-3c-.58-.91-1.23-2-1.8-2.1s-1.71.45-2.63.93a8.81,8.81,0,0,1-3.92,1.33,8.9,8.9,0,0,1-3.92-1.28c-1-.5-2.09-1.07-2.65-.91s-1.21,1.19-1.78,2.11a8.6,8.6,0,0,1-2.64,3.06,9,9,0,0,1-3.91.9c-1.12.09-2.39.19-2.79.64s-.26,1.62-.2,2.61a8.62,8.62,0,0,1-.4,4.05,8,8,0,0,1-2.64,2.82C63.37,177.26,62.36,178.05,62.26,178.73Z"/><path class="cls-1" d="M92.45,182.57l-3.12-.42c.26-1.88,1.8-3.08,3.16-4.13a6.67,6.67,0,0,0,1.72-1.65,6.9,6.9,0,0,0,.14-2.66c-.1-1.62-.21-3.47,1-4.79s3.2-1.56,4.92-1.69a7.06,7.06,0,0,0,2.51-.46,6.62,6.62,0,0,0,1.59-2c.87-1.41,1.86-3,3.64-3.48s3.46.39,5,1.15a6.71,6.71,0,0,0,2.44.93,7.07,7.07,0,0,0,2.44-1c1.48-.78,3.17-1.66,4.94-1.2s2.79,2.06,3.68,3.47a6.78,6.78,0,0,0,1.59,2,7,7,0,0,0,2.5.47c1.73.14,3.7.3,4.93,1.72s1,3.19.91,4.82a6.86,6.86,0,0,0,.09,2.66,6.52,6.52,0,0,0,1.67,1.67c1.34,1.1,2.85,2.33,3.07,4.23l-3.14.34c-.08-.68-1.08-1.5-2-2.22a8,8,0,0,1-2.57-2.86,8.85,8.85,0,0,1-.31-4.05c.07-1,.17-2.22-.17-2.61s-1.66-.55-2.79-.64a9,9,0,0,1-3.88-.91,8.6,8.6,0,0,1-2.64-3c-.57-.92-1.23-2-1.8-2.1s-1.7.45-2.62.93a8.81,8.81,0,0,1-3.92,1.33h0a9,9,0,0,1-3.9-1.28c-1-.5-2.08-1.07-2.65-.91s-1.21,1.19-1.78,2.11a8.44,8.44,0,0,1-2.63,3,8.88,8.88,0,0,1-3.91.91c-1.12.08-2.39.18-2.79.63s-.27,1.62-.21,2.61a8.73,8.73,0,0,1-.39,4.05,8.18,8.18,0,0,1-2.64,2.83C93.57,181.11,92.55,181.9,92.45,182.57Z"/><path class="cls-1" d="M100.1,177.86,97,177.63c.15-1.87,1.59-3.16,2.87-4.3a6.87,6.87,0,0,0,1.61-1.77,6.73,6.73,0,0,0-.07-2.66c-.23-1.61-.49-3.43.57-4.85s3-1.82,4.72-2.11a6.81,6.81,0,0,0,2.45-.69,6.56,6.56,0,0,0,1.37-2.2c.7-1.48,1.51-3.17,3.2-3.83s3.49,0,5.07.58a7.07,7.07,0,0,0,2.52.64,6.89,6.89,0,0,0,2.33-1.25c1.37-.94,2.94-2,4.74-1.76s3,1.74,4.11,3.06a6.89,6.89,0,0,0,1.79,1.8,7.28,7.28,0,0,0,2.55.22c1.74,0,3.72-.06,5.1,1.25s1.32,3.11,1.33,4.75a7,7,0,0,0,.32,2.65,6.77,6.77,0,0,0,1.77,1.54c1.34,1,3,2.15,3.37,4l-3.11.54c-.13-.68-1.19-1.44-2.13-2.11a8.06,8.06,0,0,1-2.73-2.65,8.88,8.88,0,0,1-.65-4c0-1,0-2.23-.38-2.58s-1.72-.39-2.84-.38a9.11,9.11,0,0,1-3.94-.5,8.62,8.62,0,0,1-2.94-2.7c-.69-.85-1.47-1.82-2.06-1.9s-1.63.65-2.48,1.23a8.79,8.79,0,0,1-3.75,1.78,8.76,8.76,0,0,1-4-.82c-1-.38-2.2-.82-2.75-.6s-1.06,1.31-1.52,2.28a8.37,8.37,0,0,1-2.31,3.34A8.67,8.67,0,0,1,107.2,165c-1.1.19-2.36.41-2.72.89s-.13,1.64,0,2.63a8.71,8.71,0,0,1-.08,4.09,8,8,0,0,1-2.46,3C101.11,176.34,100.15,177.19,100.1,177.86Z"/><path class="cls-1" d="M130.3,179.36l-3.15-.23c.14-1.87,1.59-3.17,2.86-4.31a6.4,6.4,0,0,0,1.61-1.77,6.5,6.5,0,0,0-.07-2.65c-.23-1.61-.48-3.43.57-4.85s3-1.82,4.72-2.11a7.15,7.15,0,0,0,2.46-.69,6.56,6.56,0,0,0,1.36-2.2c.71-1.49,1.51-3.17,3.21-3.83s3.49,0,5.07.57a6.77,6.77,0,0,0,2.52.64,6.8,6.8,0,0,0,2.32-1.24c1.38-.94,2.94-2,4.75-1.76s3.05,1.74,4.1,3a6.67,6.67,0,0,0,1.8,1.81A7.25,7.25,0,0,0,167,160c1.75,0,3.73-.06,5.1,1.25s1.32,3.11,1.34,4.76a6.78,6.78,0,0,0,.31,2.64,6.58,6.58,0,0,0,1.77,1.54c1.35,1,3,2.15,3.37,4.05l-3.11.54c-.12-.69-1.19-1.44-2.12-2.11a8,8,0,0,1-2.74-2.66,9,9,0,0,1-.64-4c0-1,0-2.23-.39-2.58s-1.71-.4-2.84-.38a9.11,9.11,0,0,1-3.94-.5,8.72,8.72,0,0,1-2.94-2.7c-.69-.85-1.46-1.82-2.06-1.9s-1.63.65-2.48,1.23a8.75,8.75,0,0,1-3.74,1.78,8.86,8.86,0,0,1-4.05-.82c-1-.38-2.21-.82-2.76-.6s-1.06,1.31-1.52,2.28a8.51,8.51,0,0,1-2.31,3.34,8.71,8.71,0,0,1-3.82,1.28c-1.11.19-2.36.41-2.72.89s-.14,1.64,0,2.63a8.54,8.54,0,0,1-.07,4.08,8,8,0,0,1-2.46,3C131.31,177.84,130.35,178.69,130.3,179.36Z"/><path class="cls-1" d="M160.49,180.86l-3.15-.23c.15-1.88,1.59-3.17,2.87-4.31a6.56,6.56,0,0,0,1.61-1.77,6.73,6.73,0,0,0-.07-2.66c-.23-1.6-.49-3.42.57-4.84s3-1.82,4.72-2.11a6.79,6.79,0,0,0,2.45-.7,6.4,6.4,0,0,0,1.37-2.19c.7-1.49,1.51-3.17,3.2-3.84s3.49,0,5.07.58a6.81,6.81,0,0,0,2.52.64,7,7,0,0,0,2.33-1.24c1.37-.94,2.94-2,4.74-1.76s3.05,1.74,4.11,3a6.8,6.8,0,0,0,1.79,1.81,7.28,7.28,0,0,0,2.54.21c1.75,0,3.73-.06,5.11,1.25s1.32,3.11,1.33,4.76a7,7,0,0,0,.32,2.64,6.43,6.43,0,0,0,1.77,1.54c1.34,1,3,2.15,3.37,4.05l-3.11.53c-.13-.68-1.19-1.43-2.13-2.1a8.18,8.18,0,0,1-2.73-2.66,8.84,8.84,0,0,1-.65-4c0-1,0-2.24-.38-2.59s-1.72-.39-2.84-.37a9.11,9.11,0,0,1-3.94-.51,8.59,8.59,0,0,1-2.94-2.69c-.69-.85-1.47-1.82-2.06-1.9s-1.63.64-2.48,1.23a6.55,6.55,0,0,1-7.8,1c-1-.39-2.2-.82-2.75-.6s-1.06,1.31-1.52,2.27a8.48,8.48,0,0,1-2.31,3.35,8.93,8.93,0,0,1-3.83,1.28c-1.1.19-2.36.41-2.72.89s-.13,1.64,0,2.62a8.71,8.71,0,0,1-.08,4.09,8,8,0,0,1-2.46,3C161.5,179.34,160.54,180.19,160.49,180.86Z"/><path class="cls-1" d="M85.22,174.88c-.08-.68-1.08-1.5-2-2.22a8.22,8.22,0,0,1-2.56-2.87,8.69,8.69,0,0,1-.31-4c.07-1,.17-2.23-.17-2.61s-1.66-.56-2.79-.65a8.89,8.89,0,0,1-3.88-.91,8.57,8.57,0,0,1-2.64-3c-.57-.92-1.23-2-1.8-2.11s-1.7.45-2.63.94a8.88,8.88,0,0,1-3.91,1.32,8.57,8.57,0,0,1-3.93-1.28c-1-.5-2.08-1.06-2.65-.91s-1.21,1.19-1.78,2.11a8.57,8.57,0,0,1-2.63,3.06,9,9,0,0,1-3.91.9c-1.12.09-2.39.19-2.79.64s-.27,1.62-.21,2.61a8.74,8.74,0,0,1-.39,4,8.07,8.07,0,0,1-2.64,2.82c-.9.7-1.92,1.5-2,2.17l-3.13-.42c.27-1.88,1.81-3.08,3.17-4.14a6.66,6.66,0,0,0,1.72-1.64,6.93,6.93,0,0,0,.14-2.66c-.1-1.63-.22-3.47,1-4.8s3.2-1.55,4.92-1.69a7.32,7.32,0,0,0,2.51-.45,7,7,0,0,0,1.59-2c.87-1.41,1.86-3,3.64-3.49s3.46.39,5,1.15a7.13,7.13,0,0,0,2.44.93,6.87,6.87,0,0,0,2.44-1c1.48-.77,3.16-1.66,4.94-1.19s2.79,2.06,3.68,3.47a6.75,6.75,0,0,0,1.59,2,7,7,0,0,0,2.5.46c1.73.15,3.7.31,4.93,1.73s1,3.19.91,4.82a6.86,6.86,0,0,0,.09,2.66,6.85,6.85,0,0,0,1.67,1.67c1.33,1.09,2.85,2.33,3.07,4.23Z"/><path class="cls-1" d="M69.81,178.72l-3.13-.42c.27-1.88,1.81-3.07,3.16-4.13a6.51,6.51,0,0,0,1.72-1.65,6.67,6.67,0,0,0,.14-2.65c-.1-1.63-.21-3.47,1-4.8s3.2-1.55,4.93-1.69a7,7,0,0,0,2.5-.46,6.53,6.53,0,0,0,1.59-2c.87-1.41,1.87-3,3.64-3.49s3.47.39,5,1.15a7,7,0,0,0,2.43.93h0a6.87,6.87,0,0,0,2.44-1c1.49-.78,3.17-1.66,4.94-1.2s2.8,2.07,3.68,3.48a7.05,7.05,0,0,0,1.59,2,7.34,7.34,0,0,0,2.51.46c1.73.14,3.69.31,4.93,1.72s1,3.2.9,4.83a6.66,6.66,0,0,0,.1,2.66,6.6,6.6,0,0,0,1.66,1.67c1.34,1.09,2.85,2.33,3.07,4.22l-3.14.34c-.08-.67-1.08-1.49-2-2.22a8,8,0,0,1-2.56-2.86,8.82,8.82,0,0,1-.32-4c.08-1,.17-2.23-.16-2.61s-1.67-.56-2.79-.65a8.94,8.94,0,0,1-3.89-.91,8.57,8.57,0,0,1-2.63-3c-.58-.91-1.23-2-1.8-2.1s-1.71.45-2.63.93a8.81,8.81,0,0,1-3.92,1.33,9,9,0,0,1-3.93-1.28c-1-.5-2.08-1.07-2.64-.91s-1.21,1.19-1.78,2.11a8.68,8.68,0,0,1-2.64,3.06,9,9,0,0,1-3.91.9c-1.12.09-2.39.19-2.79.64s-.27,1.61-.21,2.61a8.74,8.74,0,0,1-.39,4.05,8.15,8.15,0,0,1-2.64,2.82C70.92,177.26,69.9,178.05,69.81,178.72Z"/><path class="cls-1" d="M107.55,182.57l-3.13-.42c.27-1.88,1.81-3.08,3.17-4.13a6.6,6.6,0,0,0,1.71-1.65,6.54,6.54,0,0,0,.14-2.66c-.09-1.62-.21-3.47,1-4.8s3.2-1.55,4.92-1.68a7.06,7.06,0,0,0,2.51-.46,6.74,6.74,0,0,0,1.58-2c.88-1.41,1.87-3,3.65-3.48s3.46.39,5,1.15a6.71,6.71,0,0,0,2.44.93,7.07,7.07,0,0,0,2.44-1c1.48-.78,3.17-1.66,4.93-1.2s2.8,2.06,3.69,3.47a6.62,6.62,0,0,0,1.59,2,7,7,0,0,0,2.5.47c1.73.14,3.69.3,4.93,1.72s1,3.19.9,4.82a7,7,0,0,0,.1,2.66,6.36,6.36,0,0,0,1.67,1.67c1.33,1.1,2.85,2.33,3.06,4.23l-3.13.34c-.08-.68-1.08-1.5-2-2.22a8,8,0,0,1-2.56-2.86,8.86,8.86,0,0,1-.32-4.05c.08-1,.18-2.22-.16-2.61s-1.67-.55-2.79-.65a8.89,8.89,0,0,1-3.88-.9,8.5,8.5,0,0,1-2.64-3c-.57-.92-1.23-2-1.8-2.11s-1.71.46-2.63.94a8.81,8.81,0,0,1-3.92,1.33h0a8.8,8.8,0,0,1-3.9-1.29c-1-.49-2.08-1.06-2.65-.9s-1.21,1.19-1.78,2.11a8.56,8.56,0,0,1-2.64,3,8.84,8.84,0,0,1-3.9.91c-1.13.08-2.39.18-2.79.63s-.27,1.62-.21,2.61a8.73,8.73,0,0,1-.39,4.05,8.12,8.12,0,0,1-2.65,2.83C108.67,181.11,107.65,181.9,107.55,182.57Z"/><path class="cls-1" d="M115.2,177.86l-3.15-.23c.14-1.87,1.59-3.16,2.86-4.3a6.76,6.76,0,0,0,1.62-1.77,6.73,6.73,0,0,0-.07-2.66c-.23-1.61-.49-3.43.56-4.85s3-1.82,4.72-2.11a6.87,6.87,0,0,0,2.46-.69,6.73,6.73,0,0,0,1.37-2.2c.7-1.48,1.5-3.17,3.2-3.83s3.49,0,5.07.58a7,7,0,0,0,2.52.64,6.89,6.89,0,0,0,2.33-1.25c1.37-.94,2.94-2,4.74-1.76s3,1.74,4.1,3.06a6.9,6.9,0,0,0,1.8,1.8,7.24,7.24,0,0,0,2.54.22c1.75,0,3.73-.06,5.11,1.25s1.32,3.11,1.33,4.75a6.84,6.84,0,0,0,.32,2.65,6.7,6.7,0,0,0,1.76,1.54c1.35,1,3,2.15,3.38,4l-3.11.54c-.13-.68-1.19-1.44-2.13-2.11a8.1,8.1,0,0,1-2.74-2.65,9,9,0,0,1-.64-4c0-1,0-2.23-.39-2.58s-1.71-.39-2.84-.38a9.14,9.14,0,0,1-3.94-.5,8.8,8.8,0,0,1-2.94-2.7c-.68-.85-1.46-1.82-2.06-1.9s-1.62.65-2.48,1.23a8.69,8.69,0,0,1-3.74,1.78,8.74,8.74,0,0,1-4-.82c-1-.38-2.2-.82-2.76-.6s-1.06,1.31-1.52,2.28a8.42,8.42,0,0,1-2.3,3.34A8.67,8.67,0,0,1,122.3,165c-1.11.19-2.36.41-2.72.89s-.14,1.64,0,2.63a8.58,8.58,0,0,1-.07,4.09,8.06,8.06,0,0,1-2.46,3C116.21,176.34,115.25,177.19,115.2,177.86Z"/><path class="cls-1" d="M137.85,179.36l-3.15-.23c.14-1.88,1.58-3.17,2.86-4.31a6.4,6.4,0,0,0,1.61-1.77,6.68,6.68,0,0,0-.07-2.65c-.23-1.61-.49-3.43.57-4.85s3-1.82,4.72-2.11a7.15,7.15,0,0,0,2.46-.69,6.73,6.73,0,0,0,1.36-2.2c.71-1.49,1.51-3.17,3.2-3.83s3.5,0,5.07.57a6.85,6.85,0,0,0,2.53.64,6.8,6.8,0,0,0,2.32-1.24c1.38-.94,2.94-2,4.74-1.76s3.06,1.74,4.11,3a6.67,6.67,0,0,0,1.8,1.81,7.23,7.23,0,0,0,2.54.21c1.75,0,3.73-.06,5.1,1.25s1.32,3.11,1.34,4.76a6.78,6.78,0,0,0,.31,2.64,6.58,6.58,0,0,0,1.77,1.54c1.35,1,3,2.15,3.37,4.05l-3.11.54c-.12-.69-1.19-1.44-2.12-2.11a8.12,8.12,0,0,1-2.74-2.66,9,9,0,0,1-.64-4c0-1,0-2.23-.39-2.58s-1.71-.4-2.84-.38a9.26,9.26,0,0,1-3.94-.5,8.72,8.72,0,0,1-2.94-2.7c-.69-.85-1.46-1.82-2.06-1.9s-1.63.65-2.48,1.23a6.54,6.54,0,0,1-7.79,1c-1-.38-2.21-.82-2.76-.6s-1.06,1.31-1.52,2.28a8.51,8.51,0,0,1-2.31,3.34,8.71,8.71,0,0,1-3.83,1.28c-1.1.19-2.35.41-2.71.89s-.14,1.64,0,2.63a8.41,8.41,0,0,1-.08,4.08,8,8,0,0,1-2.45,3C138.85,177.84,137.9,178.69,137.85,179.36Z"/><path class="cls-1" d="M145.4,178.92l-3.15-.23c.14-1.88,1.58-3.17,2.86-4.31a6.4,6.4,0,0,0,1.61-1.77,6.68,6.68,0,0,0-.07-2.65c-.23-1.61-.49-3.43.57-4.85s3-1.82,4.72-2.11a7.15,7.15,0,0,0,2.46-.69,6.73,6.73,0,0,0,1.36-2.2c.71-1.49,1.51-3.17,3.2-3.84s3.5,0,5.07.58a6.81,6.81,0,0,0,2.53.64,6.89,6.89,0,0,0,2.32-1.24c1.38-.94,2.94-2,4.74-1.76s3,1.74,4.11,3a6.67,6.67,0,0,0,1.8,1.81,7.23,7.23,0,0,0,2.54.21c1.74,0,3.73-.06,5.1,1.25s1.32,3.11,1.33,4.76a7,7,0,0,0,.32,2.64,6.58,6.58,0,0,0,1.77,1.54c1.35,1,3,2.15,3.37,4.05l-3.11.54c-.12-.69-1.19-1.44-2.13-2.11a8.18,8.18,0,0,1-2.73-2.66,9.12,9.12,0,0,1-.65-4c0-1,0-2.24-.38-2.59s-1.71-.39-2.84-.37a9.11,9.11,0,0,1-3.94-.51,8.59,8.59,0,0,1-2.94-2.69c-.69-.85-1.47-1.82-2.06-1.9s-1.63.65-2.48,1.23a6.54,6.54,0,0,1-7.79,1c-1-.39-2.21-.82-2.76-.6s-1.06,1.31-1.52,2.28a8.51,8.51,0,0,1-2.31,3.34,8.88,8.88,0,0,1-3.83,1.28c-1.1.19-2.35.41-2.71.89s-.14,1.64,0,2.62a8.71,8.71,0,0,1-.08,4.09,8,8,0,0,1-2.45,3C146.4,177.4,145.45,178.25,145.4,178.92Z"/><path class="cls-1" d="M125.92,157.08c5.59-3.29,9-9.52,14.61-12.73a33.85,33.85,0,0,1,8.7-3l18.3-4.5c2.69-.67,5.58-1.32,8.18-.35,2.32.87,4,2.91,6.2,4.08,3.44,1.84,7.64,1.34,11.41,2.35A14.45,14.45,0,0,1,203,162.21c-1.91,4.81-6.24,8.24-10.76,10.78s-9.4,4.44-13.62,7.45c-3.65,2.61-6.75,6-10.77,8a32.75,32.75,0,0,1-9.61,2.6c-8.73,1.35-17.87,2.09-26.23-.76a25.19,25.19,0,0,1-16.1-16.09C113.5,166.32,119.86,160.65,125.92,157.08Z"/><path class="cls-2" d="M171.38,158.21c3.21-2.14,5.69-5.24,5.93-8.49a3,3,0,0,0-1-2.75,4.87,4.87,0,0,0-1.7-.75c-9.93-3-24.27-2.4-31.62,5.85-5.39,6.05.38,12.64,8.53,12.18C158,163.9,166.19,161.67,171.38,158.21Z"/></g><polygon class="cls-1" points="115.11 159.55 120.78 152.78 98.54 162.6 92.88 169.38 115.11 159.55"/><polygon class="cls-1" points="105.78 152.5 108.26 144.02 91.8 161.91 89.33 170.39 105.78 152.5"/><path class="cls-1" d="M236.72,159.48c0,2.31-53.66,8.94-118.89,8.94S.5,161.79.5,159.48c0,0,11.52,74.08,118.24,74.08S237,159.48,237,159.48Z"/><path class="cls-1" d="M167,237.11c0-.17-1.18-.75-1.18-.88s-1.17-.75-1.17-.88-1.17-.75-1.17-.88-1.17-.75-1.17-.88-1.17-.75-1.17-.87-1.17-.75-1.17-.88-1.17-.75-1.17-.88-1.17-.75-1.17-.88c0-.84-17.39,1-38.84,1s-38.85-1.8-38.85-1c0,.13-1.17.7-1.17.88s-1.17.7-1.17.88-1.17.7-1.17.88-1.17.7-1.17.87-1.17.71-1.17.88-1.17.71-1.17.88-1.17.71-1.17.88-1.17.71-1.17.88-1.18,2.69-1.18,2.86c0,.84,22,3.9,49.31,3.9s49.46-3.06,49.46-3.9C168.12,239.8,167,237.24,167,237.11Z"/></g><g id="shot-glass"><path class="cls-5" d="M222.28,239.4c.49-3.14.57-6.29,1.07-9.43.45-2.92.92-5.85,1.37-8.78.06-.4.05-.81.1-1.21.13-1.1,0-1.13-1-1.52-2.31-.92-4.73-.73-7.11-.88-1.42-.08-2.85-.15-4.27-.16-3.69,0-7.38-.16-11.07-.14s-7.23.09-10.85.19c-2,.06-4,.22-6,.37a12.58,12.58,0,0,0-2.85.84c-.48.15-.56.5-.47,1,.28,1.8.48,3.61.75,5.41.7,4.58,1.48,8.84,2.2,13.43a1.72,1.72,0,0,1-.27,1.16,1.75,1.75,0,0,0-.34,1.38c.2,2.31.54,4.61.79,6.91.16,1.4.19,2.81.39,4.2.28,1.87.42,3.75.68,5.61.18,1.26.27,2.55.41,3.83.16,1.49.24,3,.55,4.48a7.61,7.61,0,0,1,.12,1.49c0,1.15.8,1.53,1.54,1.95,2.23,1.29,4.84,1.54,7.3,1.83a59.59,59.59,0,0,0,9.54.4,44.34,44.34,0,0,0,10.75-1.28,9.14,9.14,0,0,0,2.94-1.31,3.1,3.1,0,0,0,1.13-2.43c.15-1.43.31-2.87.49-4.3.16-1.27.27-2.55.41-3.82.16-1.47.33-2.93.51-4.4.16-1.26.27-2.54.41-3.82.16-1.53.3-3.06.53-4.58s.36-3.23.46-4.85A3.06,3.06,0,0,0,222.28,239.4Z"/><path class="cls-4" d="M194,255.27c0,.1.28.17.45.21a3.47,3.47,0,0,0,.56.11,11.15,11.15,0,0,0,1.15.1c.78,0,1.55,0,2.32,0,1.55-.06,3.09,0,4.63,0s3.08,0,4.61,0c.77,0,1.54,0,2.29-.06.38,0,.76-.06,1.12-.11a3.66,3.66,0,0,0,.5-.12,1,1,0,0,0,.22-.12s0-.11-.2-.18a2.9,2.9,0,0,0-.5-.19,6.6,6.6,0,0,0-1.11-.2,19.62,19.62,0,0,0-2.31-.16c-1.54,0-3.09.14-4.63.23s-3.07.1-4.62.06c-.77,0-1.55,0-2.32,0a11.15,11.15,0,0,0-1.15.1,3.47,3.47,0,0,0-.56.11C194.26,255.09,194,255.16,194,255.27Zm-.1,0c.11-.27.34-.26.52-.33s.38-.09.57-.14c.38-.09.76-.14,1.14-.22.77-.15,1.54-.27,2.31-.38a27.85,27.85,0,0,1,4.65-.27c1.56.06,3.11.2,4.65.29.78,0,1.56.06,2.33.13.39,0,.78.07,1.18.13a3.67,3.67,0,0,1,.61.16.75.75,0,0,1,.54.63.6.6,0,0,1-.2.46,1.41,1.41,0,0,1-.32.22,4,4,0,0,1-.6.22,8.52,8.52,0,0,1-1.18.24c-.79.11-1.57.17-2.34.21-1.56.08-3.11.13-4.67.1a38.17,38.17,0,0,1-4.65-.37c-.77-.12-1.54-.24-2.31-.39-.38-.08-.76-.13-1.14-.22l-.57-.14C194.22,255.52,194,255.53,193.88,255.27Z"/><path class="cls-6" d="M222.28,239.4c.49-3.14.57-6.29,1.07-9.43.45-2.92.92-5.85,1.37-8.78.06-.4.05-.81.1-1.21.13-1.1,0-1.13-1-1.52-2.31-.92-4.73-.73-7.11-.88-1.42-.08-2.85-.15-4.27-.16-3.69,0-7.38-.16-11.07-.14s-7.23.09-10.85.19c-2,.06-4,.22-6,.37a12.58,12.58,0,0,0-2.85.84c-.48.15-.56.5-.47,1,.28,1.8.48,3.61.75,5.41.7,4.58,1.48,8.84,2.2,13.43a1.72,1.72,0,0,1-.27,1.16,1.75,1.75,0,0,0-.34,1.38c.2,2.31.54,4.61.79,6.91.16,1.4.19,2.81.39,4.2.28,1.87.42,3.75.68,5.61.18,1.26.27,2.55.41,3.83.16,1.49.24,3,.55,4.48a7.61,7.61,0,0,1,.12,1.49c0,1.15.8,1.53,1.54,1.95,2.23,1.29,4.84,1.54,7.3,1.83a59.59,59.59,0,0,0,9.54.4,44.34,44.34,0,0,0,10.75-1.28,9.14,9.14,0,0,0,2.94-1.31,3.1,3.1,0,0,0,1.13-2.43c.15-1.43.31-2.87.49-4.3.16-1.27.27-2.55.41-3.82.16-1.47.33-2.93.51-4.4.16-1.26.27-2.54.41-3.82.16-1.53.3-3.06.53-4.58s.36-3.23.46-4.85A3.06,3.06,0,0,0,222.28,239.4Z"/><path class="cls-4" d="M222.28,239.4a3.6,3.6,0,0,0-1.38,1.24,5.73,5.73,0,0,0-.5,1.8c-.22,1.24-.47,2.49-.76,3.73a20.8,20.8,0,0,1-3,7.06,13.82,13.82,0,0,1-6,4.89,19.37,19.37,0,0,1-7.58,1.53,19.12,19.12,0,0,1-7.6-1.4,14.45,14.45,0,0,1-6-4.83,18.5,18.5,0,0,1-3-7c-.28-1.24-.53-2.48-.78-3.72a14.81,14.81,0,0,0-.43-1.83,6.61,6.61,0,0,0-1.22-1.43,6.92,6.92,0,0,1,1.32,1.38,12.36,12.36,0,0,1,.55,1.83c.33,1.22.65,2.44,1,3.65a18.25,18.25,0,0,0,3.17,6.7,14.4,14.4,0,0,0,5.78,4.45,20.61,20.61,0,0,0,14.46-.12,13.77,13.77,0,0,0,5.72-4.5,21.12,21.12,0,0,0,3.14-6.74c.37-1.21.68-2.43,1-3.66a6,6,0,0,1,.61-1.81A3.79,3.79,0,0,1,222.28,239.4Z"/><path class="cls-1" d="M181.37,218.86c.41.87,2.72.65,3.35.7,3.18.28,6.37.44,9.56.6,1.26.06,2.52,0,3.77,0,4.17,0,8.34,0,12.51,0,3,0,6-.21,9-.37,1-.05,2-.23,3-.37.32,0,2-.21,2.12-.55"/></g><g id="shot-glass-2" data-name="shot-glass"><path class="cls-5" d="M197.4,243.5c.49-3.14.57-6.29,1.06-9.43.46-2.93.93-5.85,1.38-8.78.06-.4,0-.81.1-1.21.13-1.1,0-1.13-1-1.52-2.31-.92-4.73-.73-7.11-.88-1.43-.09-2.85-.15-4.27-.17-3.69,0-7.38-.15-11.07-.13s-7.23.08-10.85.19c-2,.06-4,.22-6,.37a12.58,12.58,0,0,0-2.85.84c-.48.15-.56.5-.48,1,.29,1.8.49,3.61.76,5.41.69,4.58,1.48,8.84,2.19,13.42a1.73,1.73,0,0,1-.26,1.17,1.71,1.71,0,0,0-.34,1.38c.2,2.31.54,4.61.79,6.91.15,1.4.18,2.81.39,4.2.28,1.87.42,3.75.68,5.61.18,1.26.27,2.55.41,3.82a45.1,45.1,0,0,0,.55,4.49,8.47,8.47,0,0,1,.12,1.49c0,1.15.8,1.52,1.54,1.95,2.23,1.29,4.84,1.53,7.29,1.83a59.69,59.69,0,0,0,9.54.4,44.42,44.42,0,0,0,10.76-1.28,9.14,9.14,0,0,0,2.94-1.31,3.1,3.1,0,0,0,1.13-2.43c.15-1.43.31-2.87.49-4.3.16-1.27.26-2.55.4-3.82.16-1.47.34-2.93.52-4.4.16-1.26.26-2.55.4-3.82.17-1.53.3-3.06.53-4.58s.37-3.23.46-4.85A3.06,3.06,0,0,0,197.4,243.5Z"/><path class="cls-4" d="M169.1,259.37c0,.1.28.17.45.21a3.47,3.47,0,0,0,.56.11,10.92,10.92,0,0,0,1.15.1c.77,0,1.55,0,2.32,0,1.54-.06,3.08,0,4.62,0s3.09,0,4.62,0c.77,0,1.54,0,2.29-.06.38,0,.75-.06,1.11-.11a3.47,3.47,0,0,0,.51-.12,1,1,0,0,0,.22-.12s0-.11-.2-.18a2.26,2.26,0,0,0-.5-.19,5.83,5.83,0,0,0-1.12-.2,19.6,19.6,0,0,0-2.3-.16c-1.54,0-3.09.13-4.63.23s-3.08.1-4.62.06c-.77,0-1.55,0-2.32,0a8.77,8.77,0,0,0-1.15.1,3.47,3.47,0,0,0-.56.11C169.38,259.19,169.14,259.26,169.1,259.37Zm-.1,0c.11-.27.34-.26.51-.33s.38-.1.57-.14c.38-.09.77-.14,1.15-.22.77-.15,1.54-.27,2.31-.38a27.85,27.85,0,0,1,4.65-.27c1.55.05,3.1.2,4.65.29.78,0,1.55.06,2.33.13.39,0,.78.07,1.18.13a3.33,3.33,0,0,1,.6.16.76.76,0,0,1,.55.63.68.68,0,0,1-.2.46,1.41,1.41,0,0,1-.32.22,4.44,4.44,0,0,1-.6.22,8.36,8.36,0,0,1-1.19.24c-.78.11-1.56.17-2.34.21-1.55.08-3.11.13-4.66.1a38.17,38.17,0,0,1-4.65-.37c-.77-.12-1.54-.24-2.31-.39-.38-.08-.77-.13-1.15-.22l-.57-.14C169.34,259.62,169.11,259.63,169,259.37Z"/><path class="cls-6" d="M197.4,243.5c.49-3.14.57-6.29,1.06-9.43.46-2.93.93-5.85,1.38-8.78.06-.4,0-.81.1-1.21.13-1.1,0-1.13-1-1.52-2.31-.92-4.73-.73-7.11-.88-1.43-.09-2.85-.15-4.27-.17-3.69,0-7.38-.15-11.07-.13s-7.23.08-10.85.19c-2,.06-4,.22-6,.37a12.58,12.58,0,0,0-2.85.84c-.48.15-.56.5-.48,1,.29,1.8.49,3.61.76,5.41.69,4.58,1.48,8.84,2.19,13.42a1.73,1.73,0,0,1-.26,1.17,1.71,1.71,0,0,0-.34,1.38c.2,2.31.54,4.61.79,6.91.15,1.4.18,2.81.39,4.2.28,1.87.42,3.75.68,5.61.18,1.26.27,2.55.41,3.82a45.1,45.1,0,0,0,.55,4.49,8.47,8.47,0,0,1,.12,1.49c0,1.15.8,1.52,1.54,1.95,2.23,1.29,4.84,1.53,7.29,1.83a59.69,59.69,0,0,0,9.54.4,44.42,44.42,0,0,0,10.76-1.28,9.14,9.14,0,0,0,2.94-1.31,3.1,3.1,0,0,0,1.13-2.43c.15-1.43.31-2.87.49-4.3.16-1.27.26-2.55.4-3.82.16-1.47.34-2.93.52-4.4.16-1.26.26-2.55.4-3.82.17-1.53.3-3.06.53-4.58s.37-3.23.46-4.85A3.06,3.06,0,0,0,197.4,243.5Z"/><path class="cls-4" d="M197.4,243.5a3.7,3.7,0,0,0-1.39,1.24,5.65,5.65,0,0,0-.49,1.79c-.22,1.25-.47,2.5-.77,3.73a20.83,20.83,0,0,1-3,7.07,13.82,13.82,0,0,1-6,4.89,19.63,19.63,0,0,1-7.58,1.53,19.09,19.09,0,0,1-7.6-1.4,14.39,14.39,0,0,1-6-4.83,18.5,18.5,0,0,1-3-7c-.28-1.24-.53-2.48-.78-3.72a16.87,16.87,0,0,0-.43-1.83,6.9,6.9,0,0,0-1.22-1.43,6.37,6.37,0,0,1,1.31,1.38,12.29,12.29,0,0,1,.56,1.82c.33,1.23.65,2.45,1,3.66a18.25,18.25,0,0,0,3.17,6.7,14.34,14.34,0,0,0,5.78,4.45,18.29,18.29,0,0,0,7.24,1.24,18.54,18.54,0,0,0,7.22-1.36,13.77,13.77,0,0,0,5.72-4.5,20.88,20.88,0,0,0,3.13-6.74c.37-1.21.69-2.43,1-3.66a5.89,5.89,0,0,1,.62-1.81A3.7,3.7,0,0,1,197.4,243.5Z"/><path class="cls-1" d="M156.49,223c.41.87,2.72.65,3.35.7,3.18.28,6.37.44,9.56.6,1.25.06,2.51,0,3.77,0,4.17,0,8.34,0,12.51,0,3,0,6-.21,9-.37,1,0,2-.23,2.94-.37.33,0,2-.22,2.12-.55"/></g></g></g></g></svg>