<svg xmlns="http://www.w3.org/2000/svg" viewBox="0 0 100 100"><defs><style>.cls-1{fill:#ff7b00;}</style></defs><title>Asset 5</title><g id="Layer_2" data-name="Layer 2"><g id="Layer_1-2" data-name="Layer 1"><circle cx="50" cy="50" r="41.75" transform="translate(-17.26 28.18) rotate(-27.02)"/><path class="cls-1" d="M59.57,50A9.57,9.57,0,1,1,50,40.43,9.57,9.57,0,0,1,59.57,50Z"/><path class="cls-1" d="M72.46,33.17a9.06,9.06,0,0,0-2.13-3.31A8.85,8.85,0,0,0,67,27.7a15.71,15.71,0,0,0-5.32-1c-3-.15-3.94-.18-11.6-.22s-8.58,0-11.61.12a15.69,15.69,0,0,0-5.33,1A9.52,9.52,0,0,0,27.69,33a16,16,0,0,0-1,5.32c-.15,3-.18,3.94-.22,11.6s0,8.58.12,11.61a15.69,15.69,0,0,0,1,5.33A9.52,9.52,0,0,0,33,72.31a16,16,0,0,0,5.32,1c3,.15,3.94.18,11.6.22s8.58,0,11.61-.12a15.69,15.69,0,0,0,5.33-1A9.5,9.5,0,0,0,72.3,67a15.71,15.71,0,0,0,1-5.32c.15-3,.18-3.94.22-11.6s0-8.58-.12-11.61A15.69,15.69,0,0,0,72.46,33.17ZM49.93,64.74A14.74,14.74,0,1,1,64.74,50.07,14.73,14.73,0,0,1,49.93,64.74ZM65.38,38.19a3.45,3.45,0,1,1,3.46-3.43A3.45,3.45,0,0,1,65.38,38.19Z"/><path class="cls-1" d="M50.23,0A50,50,0,1,0,100,50.23,50,50,0,0,0,50.23,0ZM78.48,62a21,21,0,0,1-1.36,7,14.69,14.69,0,0,1-8.44,8.36,21,21,0,0,1-7,1.3c-3.06.13-4,.16-11.84.12S41.1,78.64,38,78.48a21,21,0,0,1-7-1.36,14.72,14.72,0,0,1-8.36-8.44,21,21,0,0,1-1.3-7c-.13-3.06-.16-4-.12-11.84s.07-8.77.23-11.84a21,21,0,0,1,1.36-7,14.72,14.72,0,0,1,8.44-8.36,21,21,0,0,1,7-1.3c3.06-.13,4-.16,11.84-.12s8.77.07,11.84.23a21,21,0,0,1,7,1.36,14.72,14.72,0,0,1,8.36,8.44,21,21,0,0,1,1.3,7c.13,3.06.16,4,.12,11.84S78.64,58.9,78.48,62Z"/></g></g></svg>